<svg preserveAspectRatio="none" width="100%" height="100%" overflow="visible" style="display: block;" viewBox="0 0 11.6667 11.6667" fill="none" xmlns="http://www.w3.org/2000/svg">
<g id="Container">
<path id="Icon" d="M5.83333 10.5C6.5625 10.5 7.18229 10.2448 7.69271 9.73438C8.20313 9.22396 8.45833 8.60417 8.45833 7.875C8.45833 7.14583 8.20313 6.52604 7.69271 6.01562C7.18229 5.50521 6.5625 5.25 5.83333 5.25C5.10417 5.25 4.48437 5.50521 3.97396 6.01562C3.46354 6.52604 3.20833 7.14583 3.20833 7.875C3.20833 8.60417 3.46354 9.22396 3.97396 9.73438C4.48437 10.2448 5.10417 10.5 5.83333 10.5V10.5M4.12708 4.49167C4.32153 4.38472 4.52812 4.29965 4.74687 4.23646C4.96562 4.17326 5.18681 4.13194 5.41042 4.1125L3.9375 1.16667H2.47917L4.12708 4.49167V4.49167M7.53958 4.49167L9.20208 1.16667H7.72917L6.48958 3.64583L6.76667 4.2C6.90278 4.23889 7.03403 4.28021 7.16042 4.32396C7.28681 4.36771 7.41319 4.42361 7.53958 4.49167V4.49167M2.56667 9.8C2.40139 9.51806 2.27257 9.21424 2.18021 8.88854C2.08785 8.56285 2.04167 8.225 2.04167 7.875C2.04167 7.525 2.08785 7.18715 2.18021 6.86146C2.27257 6.53576 2.40139 6.23194 2.56667 5.95V5.95V5.95C2.15833 6.08611 1.82292 6.32674 1.56042 6.67188C1.29792 7.01701 1.16667 7.41806 1.16667 7.875C1.16667 8.33194 1.29792 8.73299 1.56042 9.07812C1.82292 9.42326 2.15833 9.66389 2.56667 9.8V9.8V9.8V9.8M9.1 9.8C9.50833 9.66389 9.84375 9.42326 10.1062 9.07812C10.3687 8.73299 10.5 8.33194 10.5 7.875C10.5 7.41806 10.3687 7.01701 10.1062 6.67188C9.84375 6.32674 9.50833 6.08611 9.1 5.95V5.95V5.95C9.26528 6.23194 9.3941 6.53576 9.48646 6.86146C9.57882 7.18715 9.625 7.525 9.625 7.875C9.625 8.225 9.57882 8.56285 9.48646 8.88854C9.3941 9.21424 9.26528 9.51806 9.1 9.8V9.8V9.8V9.8M5.83333 11.6667C5.44444 11.6667 5.07257 11.6108 4.71771 11.499C4.36285 11.3872 4.03472 11.234 3.73333 11.0396C3.64583 11.059 3.55833 11.0712 3.47083 11.076C3.38333 11.0809 3.29097 11.0833 3.19375 11.0833C2.30903 11.0833 1.55556 10.7722 0.933333 10.15C0.311111 9.52778 0 8.77431 0 7.88958C0 7.04375 0.281944 6.31944 0.845833 5.71667C1.40972 5.11389 2.10486 4.77847 2.93125 4.71042V4.71042V4.71042L0.583333 0H4.66667L5.83333 2.33333L7 0H11.0833L8.75 4.68125V4.68125V4.68125C9.57639 4.75903 10.2691 5.09931 10.8281 5.70208C11.3872 6.30486 11.6667 7.02917 11.6667 7.875C11.6667 8.76944 11.3556 9.52778 10.7333 10.15C10.1111 10.7722 9.35278 11.0833 8.45833 11.0833C8.37083 11.0833 8.2809 11.0809 8.18854 11.076C8.09618 11.0712 8.00625 11.059 7.91875 11.0396C7.61736 11.234 7.29167 11.3872 6.94167 11.499C6.59167 11.6108 6.22222 11.6667 5.83333 11.6667V11.6667M5.83333 7.875V7.875V7.875V7.875V7.875V7.875V7.875V7.875V7.875V7.875M4.12708 4.49167L2.47917 1.16667V1.16667L4.12708 4.49167V4.49167V4.49167V4.49167M7.53958 4.49167V4.49167V4.49167L9.20208 1.16667V1.16667L7.53958 4.49167V4.49167M4.75417 9.47917L5.1625 8.15208L4.08333 7.37917H5.41042L5.83333 5.97917L6.25625 7.37917H7.58333L6.50417 8.15208L6.9125 9.47917L5.83333 8.6625L4.75417 9.47917V9.47917" fill="var(--fill-0, white)"/>
</g>
</svg>
