<svg preserveAspectRatio="none" width="100%" height="100%" overflow="visible" style="display: block;" viewBox="0 0 28.75 23.75" fill="none" xmlns="http://www.w3.org/2000/svg">
<g id="Container">
<path id="Icon" d="M20.25 15.625L25 11.5625L28.75 11.875L23.25 16.6562L24.875 23.75L21.6875 21.8125L20.25 15.625V15.625M17.3125 6.5L16 3.4375L17.4375 0L20.3125 6.78125L17.3125 6.5V6.5M8.5625 18.5312L12.5 16.1562L16.4375 18.5625L15.4062 14.0625L18.875 11.0625L14.3125 10.6562L12.5 6.40625L10.6875 10.625L6.125 11.0312L9.59375 14.0625L8.5625 18.5312V18.5312M4.78125 23.75L6.8125 14.9688L0 9.0625L9 8.28125L12.5 0L16 8.28125L25 9.0625L18.1875 14.9688L20.2188 23.75L12.5 19.0938L4.78125 23.75V23.75M12.5 13.125V13.125V13.125V13.125V13.125V13.125V13.125V13.125V13.125V13.125V13.125V13.125" fill="var(--fill-0, #C6A65D)"/>
</g>
</svg>
